<?xml version="1.0" standalone="no"?>
<!DOCTYPE svg PUBLIC "-//W3C//DTD SVG 20010904//EN"
 "http://www.w3.org/TR/2001/REC-SVG-20010904/DTD/svg10.dtd">
<svg version="1.0" xmlns="http://www.w3.org/2000/svg"
 width="1448.000000pt" height="1448.000000pt" viewBox="0 0 1448.000000 1448.000000"
 preserveAspectRatio="xMidYMid meet">
<metadata>
Created by potrace 1.14, written by Peter Selinger 2001-2017
</metadata>
<g transform="translate(0.000000,1448.000000) scale(0.100000,-0.100000)"
fill="#000000" stroke="none">
<path d="M3977 11094 c-1 -1 -45 -5 -97 -8 -91 -5 -112 -8 -190 -23 -19 -3
-39 -7 -45 -7 -10 -2 -96 -19 -105 -21 -3 -1 -18 -5 -35 -9 -99 -25 -288 -97
-401 -152 -117 -57 -366 -212 -419 -260 -11 -11 -46 -41 -78 -67 -108 -92
-252 -239 -350 -360 l-47 -59 -1 254 c-1 286 -2 307 -26 391 -23 85 -85 148
-168 174 -55 17 -105 18 -620 18 -512 0 -565 -2 -619 -18 -97 -30 -159 -109
-182 -234 -14 -73 -9 -231 10 -308 26 -109 105 -179 226 -200 25 -5 160 -9
300 -11 140 -1 261 -2 268 -3 10 -1 12 -597 10 -2963 l-3 -2962 -325 -1 c-361
-2 -412 -8 -487 -58 -54 -36 -96 -108 -112 -192 -15 -77 -7 -271 14 -330 35
-102 90 -152 200 -181 67 -18 2593 -21 2676 -3 163 35 228 136 233 364 2 91
-15 198 -39 247 -24 47 -74 97 -115 115 -77 34 -157 39 -672 38 -445 0 -508 2
-509 15 -2 21 -4 2230 -3 2230 1 0 35 -39 76 -87 109 -127 222 -240 344 -343
45 -39 163 -130 167 -130 3 0 35 -21 73 -46 83 -56 320 -172 424 -208 121 -41
273 -79 370 -92 25 -3 53 -8 62 -9 84 -16 359 -22 508 -10 293 22 564 90 808
202 41 18 75 33 77 33 21 0 334 194 380 237 11 10 43 36 70 58 78 61 180 162
258 255 40 47 74 87 78 90 3 3 25 34 50 70 24 36 46 67 49 70 6 6 14 19 88
145 32 55 70 125 84 155 14 30 36 75 48 100 23 48 30 66 78 200 46 129 106
362 126 495 4 22 8 51 11 65 27 164 39 350 39 580 0 159 -10 386 -19 412 -2 7
-6 40 -9 73 -22 221 -127 638 -193 765 -7 14 -13 29 -13 34 0 30 -201 406
-222 414 -4 2 -8 8 -8 13 0 9 -99 148 -157 220 -39 49 -251 259 -312 308 -288
235 -692 417 -1059 476 -144 23 -151 24 -231 31 -71 6 -329 12 -334 8z m303
-858 c185 -33 311 -72 445 -137 129 -63 154 -79 250 -154 321 -252 521 -608
614 -1095 60 -311 61 -643 6 -1005 -35 -224 -138 -511 -252 -700 -79 -130
-124 -187 -243 -305 -214 -212 -463 -339 -780 -396 -185 -34 -538 -23 -740 23
-164 37 -431 147 -525 215 -5 4 -48 36 -95 69 -95 70 -231 203 -305 299 -215
283 -355 674 -381 1065 -4 65 -4 389 0 440 5 62 18 178 21 195 63 317 134 518
254 715 276 453 696 709 1276 779 46 5 415 -1 455 -8z"/>
<path d="M7753 10952 c-146 -47 -205 -151 -206 -357 -1 -248 69 -359 243 -391
25 -4 141 -8 259 -9 l213 -1 100 -194 c55 -107 174 -341 265 -520 91 -179 218
-428 283 -555 138 -270 319 -626 525 -1030 81 -159 194 -380 250 -490 57 -110
167 -326 245 -480 78 -154 205 -403 282 -552 l139 -273 -109 -212 c-60 -117
-121 -233 -135 -258 -13 -25 -47 -85 -74 -135 -55 -98 -62 -110 -141 -242
-207 -345 -363 -537 -567 -697 -119 -94 -239 -159 -373 -205 -75 -25 -234 -67
-282 -75 -19 -2 -62 -9 -95 -15 -72 -12 -127 -18 -217 -26 -172 -13 -202 -17
-239 -30 -129 -46 -188 -150 -193 -340 -10 -361 120 -511 432 -499 180 7 335
24 507 56 33 6 67 12 75 13 40 6 216 56 305 88 464 162 858 502 1210 1042 232
357 297 481 932 1785 53 107 141 287 196 400 54 113 143 295 197 405 126 258
277 567 430 880 67 138 155 318 195 400 40 83 128 263 195 400 67 138 157 322
200 410 135 277 399 817 433 885 l32 64 210 1 c116 1 230 5 255 9 102 18 167
66 206 151 30 66 38 118 37 246 -1 198 -61 306 -195 347 -61 19 -99 20 -1043
21 -1076 1 -1062 1 -1150 -59 -43 -30 -90 -106 -100 -161 -2 -13 -7 -37 -10
-54 -7 -40 -7 -180 0 -230 22 -150 92 -226 239 -262 12 -3 153 -6 313 -7 161
-1 295 -5 298 -7 2 -3 -18 -52 -46 -110 -28 -57 -96 -198 -151 -314 -55 -115
-126 -264 -158 -330 -151 -314 -176 -367 -220 -460 -26 -55 -82 -172 -125
-260 -42 -88 -96 -200 -120 -250 -23 -49 -71 -148 -105 -220 -171 -357 -284
-594 -331 -692 -21 -45 -78 -164 -127 -265 -48 -101 -99 -207 -112 -235 -13
-29 -26 -53 -29 -53 -3 0 -86 161 -184 358 -99 196 -458 912 -799 1591 -347
692 -615 1236 -610 1240 6 3 186 6 401 6 215 0 391 3 391 6 0 4 8 5 18 2 25
-6 126 33 163 64 72 61 105 183 96 356 -10 208 -66 292 -222 333 -40 11 -264
14 -1150 13 -1001 0 -1105 -2 -1152 -17z"/>
</g>
</svg>
