<?xml version="1.0" standalone="no"?>
<!DOCTYPE svg PUBLIC "-//W3C//DTD SVG 20010904//EN"
 "http://www.w3.org/TR/2001/REC-SVG-20010904/DTD/svg10.dtd">
<svg version="1.0" xmlns="http://www.w3.org/2000/svg"
 width="1448.000000pt" height="1448.000000pt" viewBox="0 0 1448.000000 1448.000000"
 preserveAspectRatio="xMidYMid meet">
<metadata>
Created by potrace 1.14, written by Peter Selinger 2001-2017
</metadata>
<g transform="translate(0.000000,1448.000000) scale(0.100000,-0.100000)"
fill="#000000" stroke="none">
<path d="M10649 10986 c-2 -2 -44 -7 -94 -11 -130 -11 -131 -11 -230 -30 -223
-41 -411 -96 -598 -175 -102 -42 -272 -129 -319 -161 -14 -11 -29 -19 -33 -19
-14 0 -231 -153 -324 -229 -93 -75 -299 -273 -375 -361 -386 -445 -666 -1033
-795 -1665 -22 -111 -25 -125 -41 -240 -6 -44 -13 -91 -15 -105 -9 -61 -22
-209 -31 -360 -12 -213 -6 -760 10 -860 3 -14 7 -59 11 -100 7 -83 9 -99 31
-245 101 -664 346 -1251 723 -1730 360 -456 865 -805 1411 -975 58 -18 112
-35 120 -38 8 -3 23 -7 34 -9 10 -2 55 -12 100 -23 96 -23 237 -48 321 -56 33
-3 66 -7 73 -9 75 -24 804 -24 954 0 13 2 52 6 88 9 273 23 685 117 870 198
58 25 110 47 135 57 72 30 335 165 423 218 112 68 272 184 334 241 l38 35 0
1399 0 1398 -1180 0 c-649 0 -1180 -4 -1181 -8 -3 -50 0 -704 4 -708 3 -3 52
-7 109 -9 56 -3 173 -7 258 -10 85 -3 202 -7 260 -10 58 -2 202 -7 320 -10
118 -4 229 -9 245 -10 17 -2 65 -3 108 -4 l77 -1 0 -849 0 -850 -52 -24 c-167
-78 -281 -122 -428 -165 -110 -32 -267 -68 -335 -77 -22 -2 -71 -9 -110 -15
-252 -36 -752 -33 -950 6 -11 2 -46 9 -79 15 -78 14 -213 53 -316 91 -543 200
-975 657 -1217 1288 -90 235 -171 573 -199 825 -3 33 -8 68 -10 79 -2 10 -6
64 -10 120 -3 55 -8 117 -10 136 -4 40 -4 592 0 660 8 122 22 258 36 355 5 33
12 78 15 100 3 22 13 72 21 110 9 39 18 79 20 90 3 17 25 105 38 155 10 38 69
218 81 245 7 17 25 62 40 100 35 87 168 347 195 382 11 14 20 30 20 34 0 16
147 216 230 313 53 63 191 195 266 256 310 251 629 385 1022 428 114 12 496 5
657 -13 65 -7 151 -17 170 -21 11 -2 36 -6 55 -10 226 -37 470 -117 655 -217
70 -37 87 -53 90 -79 1 -13 6 -54 9 -93 4 -38 9 -86 11 -105 4 -34 9 -90 20
-207 3 -32 8 -80 12 -108 3 -27 7 -68 8 -90 2 -22 6 -64 9 -92 7 -58 12 -113
21 -213 7 -72 14 -102 25 -110 5 -3 184 -4 399 -2 l391 2 0 730 0 729 -77 55
c-43 30 -83 59 -89 63 -11 9 -23 16 -114 71 -101 62 -329 182 -344 182 -4 0
-31 11 -59 24 -187 87 -483 181 -695 221 -42 8 -88 17 -102 20 -56 11 -296 43
-380 50 -30 3 -77 8 -105 10 -62 7 -670 17 -676 11z"/>
<path d="M959 10880 l-35 -5 0 -310 1 -310 45 -6 c51 -8 332 -57 370 -64 14
-3 41 -8 60 -11 19 -2 46 -7 60 -10 38 -7 58 -10 140 -25 97 -17 92 -16 113
-17 16 -2 17 -145 17 -2846 l0 -2843 -60 -12 c-32 -7 -72 -13 -87 -15 -15 -2
-80 -13 -143 -25 -129 -23 -158 -28 -215 -36 -22 -4 -47 -8 -56 -11 -9 -2 -32
-7 -50 -9 -19 -3 -43 -6 -54 -9 -11 -2 -40 -7 -65 -12 -25 -4 -48 -9 -52 -10
-5 -1 -12 -2 -16 -3 -6 -1 -10 -599 -3 -621 0 -3 583 -5 1293 -4 l1293 1 1
311 c2 347 9 315 -71 327 -23 3 -52 8 -65 10 -14 3 -158 28 -320 55 -162 28
-307 53 -322 56 l-28 6 0 1229 0 1229 108 1 c59 1 154 2 212 4 183 4 929 17
1073 19 l138 1 60 -135 c33 -74 70 -155 81 -180 11 -25 28 -63 38 -85 9 -22
27 -62 40 -90 12 -27 32 -72 45 -100 12 -27 37 -84 55 -125 18 -41 47 -106 65
-145 17 -38 56 -124 85 -190 29 -66 64 -145 77 -175 14 -30 70 -156 125 -280
55 -124 108 -243 118 -265 10 -22 54 -121 98 -220 44 -99 96 -215 116 -258 20
-43 36 -80 36 -83 0 -2 13 -32 29 -67 16 -34 38 -82 49 -107 26 -59 98 -220
129 -290 14 -30 50 -111 80 -180 30 -69 68 -153 84 -188 16 -35 29 -68 29 -73
0 -5 6 -9 13 -10 17 -1 1146 -1 1177 0 l25 1 0 319 0 319 -40 6 c-36 5 -228
39 -280 49 -35 7 -89 16 -130 22 -24 4 -46 14 -54 26 -8 12 -50 98 -93 192
-83 181 -105 228 -158 342 -18 39 -45 97 -60 130 -62 135 -85 185 -136 294
-30 62 -54 115 -54 117 0 2 -27 60 -60 130 -33 69 -60 128 -60 129 0 4 -76
170 -90 196 -4 8 -45 96 -90 195 -45 98 -98 213 -117 254 -20 41 -48 102 -63
135 -15 33 -39 85 -53 115 -14 30 -60 129 -101 219 -42 91 -73 168 -69 171 5
4 60 24 123 45 373 123 653 303 867 559 113 135 195 267 252 409 50 126 60
154 85 254 26 102 31 129 41 203 3 25 10 77 15 115 9 72 7 521 -4 564 -3 12
-8 42 -10 65 -16 124 -65 314 -113 436 -53 135 -161 325 -230 407 -10 12 -28
35 -40 50 -79 102 -254 256 -397 348 -76 49 -295 165 -311 165 -3 0 -24 9 -48
19 -106 49 -387 127 -562 156 -55 9 -109 18 -121 20 -11 1 -52 6 -90 10 -38 3
-82 8 -99 10 -16 2 -94 7 -171 11 -165 7 -3362 11 -3415 4z m3476 -774 c107
-16 232 -38 270 -48 22 -5 47 -11 55 -13 40 -8 154 -52 237 -92 297 -141 505
-416 578 -761 37 -180 38 -443 0 -622 -73 -346 -262 -593 -567 -740 -45 -22
-89 -40 -98 -40 -9 0 -20 -4 -26 -9 -8 -8 -169 -55 -224 -66 -85 -17 -181 -31
-260 -39 -166 -17 -275 -18 -1397 -16 l-293 0 0 1229 0 1229 838 -3 c460 -1
860 -5 887 -9z"/>
</g>
</svg>
