<?xml version="1.0" standalone="no"?>
<!DOCTYPE svg PUBLIC "-//W3C//DTD SVG 20010904//EN"
 "http://www.w3.org/TR/2001/REC-SVG-20010904/DTD/svg10.dtd">
<svg version="1.0" xmlns="http://www.w3.org/2000/svg"
 width="1448.000000pt" height="1448.000000pt" viewBox="0 0 1448.000000 1448.000000"
 preserveAspectRatio="xMidYMid meet">
<metadata>
Created by potrace 1.14, written by Peter Selinger 2001-2017
</metadata>
<g transform="translate(0.000000,1448.000000) scale(0.100000,-0.100000)"
fill="#000000" stroke="none">
<path d="M9577 11514 c-1 -1 -42 -5 -92 -9 -49 -3 -108 -10 -130 -15 -22 -4
-60 -11 -85 -14 -25 -4 -76 -13 -115 -21 -38 -8 -82 -17 -98 -20 -15 -2 -32
-7 -37 -10 -6 -3 -18 -8 -27 -10 -54 -12 -147 -39 -208 -61 -38 -14 -77 -27
-85 -29 -8 -2 -28 -9 -45 -16 -16 -7 -32 -13 -35 -14 -3 -1 -22 -9 -44 -18
-21 -9 -41 -17 -45 -17 -17 0 -402 -194 -473 -238 -15 -9 -64 -39 -110 -66
-46 -27 -85 -52 -88 -55 -3 -4 -23 -18 -45 -31 -22 -13 -42 -27 -45 -30 -3 -4
-27 -22 -55 -40 -244 -166 -667 -547 -875 -789 -30 -35 -71 -82 -91 -105 -56
-64 -129 -155 -129 -161 0 -3 -10 -16 -22 -29 -46 -46 -269 -368 -348 -501
-13 -22 -26 -42 -29 -45 -8 -7 -30 -42 -38 -60 -18 -43 -86 -151 -91 -146 -3
4 -6 433 -7 954 -1 521 -5 956 -7 967 -3 11 -9 38 -12 60 -19 108 -77 218
-145 273 -35 28 -119 68 -161 77 -8 2 -15 4 -15 5 0 4 -47 11 -100 15 -33 2
-60 5 -60 5 0 1 -28 3 -62 4 -35 1 -63 -2 -63 -6 0 -5 -8 -5 -17 -1 -21 10
-1080 10 -1089 0 -3 -3 -16 -2 -28 1 -17 6 -671 8 -671 2 0 -1 -22 -3 -50 -5
-53 -4 -56 -5 -125 -24 -211 -60 -310 -235 -312 -550 -1 -136 4 -193 28 -286
53 -203 191 -312 423 -331 63 -5 58 -5 129 -3 29 1 55 -1 58 -4 4 -3 14 -2 23
3 10 5 23 5 30 1 7 -5 28 -5 47 -1 19 4 34 4 34 -1 0 -5 10 -5 22 0 13 5 32 5
43 1 11 -4 25 -3 32 2 7 5 14 5 17 -1 4 -6 15 -7 30 -1 12 4 29 5 36 0 7 -4
25 -4 40 0 15 4 33 4 40 0 6 -4 27 -4 45 0 18 4 39 4 46 -1 7 -4 18 -4 24 1 6
5 17 5 24 1 7 -5 28 -5 47 -1 20 5 37 4 40 -2 4 -5 10 -5 17 0 7 5 21 6 32 2
11 -4 30 -4 43 1 14 5 22 5 22 -2 0 -6 6 -6 18 0 10 5 24 6 30 2 7 -4 33 -5
57 -1 24 4 50 3 59 -2 8 -5 17 -4 21 2 4 6 12 7 18 3 7 -4 32 -8 57 -8 l45 0
0 -2880 0 -2880 -715 -1 c-393 -1 -740 -4 -770 -7 -157 -16 -250 -55 -333
-140 -32 -33 -55 -62 -52 -65 2 -3 1 -10 -4 -16 -12 -16 -41 -109 -56 -179
-20 -99 -12 -365 14 -457 55 -194 138 -272 346 -327 43 -11 5981 -15 6030 -3
22 5 51 11 65 14 87 16 178 71 233 139 39 49 88 165 90 217 2 19 5 40 9 46 8
13 3 346 -7 394 -19 98 -67 198 -120 252 -39 40 -141 95 -190 104 -17 2 -35 6
-42 9 -42 14 -308 17 -1660 19 l-1508 1 0 950 c1 837 5 1075 20 1166 2 13 6
47 9 74 6 61 25 195 32 227 2 13 7 37 10 53 3 17 12 57 21 90 8 33 18 76 20
95 3 19 18 75 34 124 16 49 26 93 23 97 -3 5 -1 9 4 9 6 0 13 17 17 38 4 20
13 51 20 67 8 17 22 53 31 80 53 164 241 551 352 729 34 54 62 101 62 105 0 3
14 22 30 41 16 19 30 38 30 42 0 4 21 37 48 73 26 37 54 77 62 88 8 12 34 47
57 77 24 30 46 60 51 65 9 13 91 112 122 149 79 94 291 309 375 381 32 28 70
60 84 72 14 13 31 26 36 31 6 4 42 33 80 64 39 31 126 95 195 142 69 47 130
89 136 93 12 9 30 20 144 86 91 53 362 186 389 192 9 2 50 17 92 34 42 17 85
32 95 34 11 2 26 7 34 10 52 19 170 52 230 62 14 2 36 7 50 10 135 29 252 39
440 39 199 0 265 -6 390 -36 25 -5 58 -12 73 -14 15 -2 37 -8 47 -14 11 -6 20
-9 20 -6 0 4 94 -25 130 -41 8 -3 17 -7 20 -8 31 -8 76 -28 192 -85 75 -37
147 -71 160 -75 12 -4 30 -9 38 -12 8 -3 49 -7 90 -10 60 -4 88 -1 139 17 77
26 191 102 191 128 0 5 6 12 14 15 31 12 176 267 176 309 0 8 3 18 8 22 4 4 7
11 8 14 0 4 3 14 7 22 13 33 40 116 43 135 2 11 6 36 10 55 24 133 18 263 -14
343 -7 16 -12 32 -12 36 0 5 -9 20 -20 34 -12 15 -21 30 -20 34 1 13 -66 96
-112 138 -51 47 -142 110 -218 152 -30 16 -64 35 -75 41 -63 36 -329 147 -372
156 -10 1 -25 6 -33 9 -60 24 -321 82 -415 93 -22 2 -62 7 -90 10 -49 5 -403
13 -408 8z"/>
</g>
</svg>
